<svg width="229" height="74" viewBox="0 0 229 74" fill="none" xmlns="http://www.w3.org/2000/svg">
<path d="M26.028 12.5C26.076 12.5 26.1 12.572 26.1 12.716C26.1 12.86 26.076 12.932 26.028 12.932C25.068 12.932 24.312 13.316 23.76 14.084C23.208 14.828 22.932 15.836 22.932 17.108V35.54C22.932 35.612 22.872 35.66 22.752 35.684C22.656 35.708 22.584 35.696 22.536 35.648L5.652 16.424V30.428C5.652 31.7 5.916 32.708 6.444 33.452C6.972 34.196 7.704 34.568 8.64 34.568C8.688 34.568 8.712 34.64 8.712 34.784C8.712 34.928 8.688 35 8.64 35C7.968 35 7.452 34.988 7.092 34.964L5.148 34.928L2.916 34.964C2.508 34.988 1.92 35 1.152 35C1.08 35 1.044 34.928 1.044 34.784C1.044 34.64 1.08 34.568 1.152 34.568C2.208 34.568 3.036 34.196 3.636 33.452C4.26 32.708 4.572 31.7 4.572 30.428V15.2C3.78 14.336 3.096 13.748 2.52 13.436C1.968 13.1 1.392 12.932 0.792 12.932C0.744 12.932 0.72 12.86 0.72 12.716C0.72 12.572 0.744 12.5 0.792 12.5L2.304 12.536C2.616 12.56 3.072 12.572 3.672 12.572L6.408 12.536C6.744 12.512 7.152 12.5 7.632 12.5C7.824 12.5 7.968 12.548 8.064 12.644C8.16 12.74 8.328 12.944 8.568 13.256C8.976 13.808 9.264 14.18 9.432 14.372L21.888 28.736V17.108C21.888 15.812 21.624 14.792 21.096 14.048C20.568 13.304 19.836 12.932 18.9 12.932C18.852 12.932 18.828 12.86 18.828 12.716C18.828 12.572 18.852 12.5 18.9 12.5L20.448 12.536C21.216 12.584 21.864 12.608 22.392 12.608C22.872 12.608 23.544 12.584 24.408 12.536L26.028 12.5ZM54.0847 34.568C54.2047 34.568 54.2647 34.64 54.2647 34.784C54.2647 34.928 54.2047 35 54.0847 35C53.6047 35 52.8607 34.976 51.8527 34.928C50.7967 34.88 50.0407 34.856 49.5847 34.856C48.9847 34.856 48.2527 34.88 47.3887 34.928C46.5727 34.976 45.9247 35 45.4447 35C45.3487 35 45.3007 34.928 45.3007 34.784C45.3007 34.64 45.3487 34.568 45.4447 34.568C46.0687 34.568 46.5127 34.508 46.7767 34.388C47.0647 34.244 47.2087 34.004 47.2087 33.668C47.2087 33.26 46.9687 32.576 46.4887 31.616L42.7447 24.236H36.3367L33.7807 29.888C33.4687 30.584 33.3127 31.232 33.3127 31.832C33.3127 32.696 33.6127 33.368 34.2127 33.848C34.8367 34.328 35.6647 34.568 36.6967 34.568C36.8167 34.568 36.8767 34.64 36.8767 34.784C36.8767 34.928 36.8167 35 36.6967 35C36.2647 35 35.6407 34.976 34.8247 34.928C33.9127 34.88 33.1207 34.856 32.4487 34.856C31.8007 34.856 31.0207 34.88 30.1087 34.928C29.2927 34.976 28.6327 35 28.1287 35C28.0327 35 27.9847 34.928 27.9847 34.784C27.9847 34.64 28.0327 34.568 28.1287 34.568C28.8007 34.568 29.3647 34.436 29.8207 34.172C30.2767 33.884 30.7327 33.392 31.1887 32.696C31.6447 31.976 32.1847 30.92 32.8087 29.528L40.6207 12.356C40.6687 12.284 40.7767 12.248 40.9447 12.248C41.1367 12.248 41.2447 12.284 41.2687 12.356L50.2687 30.068C51.1087 31.772 51.8047 32.948 52.3567 33.596C52.9087 34.244 53.4847 34.568 54.0847 34.568ZM36.8047 23.228H42.2407L39.3607 17.54L36.8047 23.228ZM64.0142 32.084C64.0142 32.828 64.0742 33.368 64.1942 33.704C64.3142 34.04 64.5422 34.268 64.8782 34.388C65.2382 34.508 65.8022 34.568 66.5702 34.568C66.6422 34.568 66.6782 34.64 66.6782 34.784C66.6782 34.928 66.6422 35 66.5702 35C65.7782 35 65.1542 34.988 64.6982 34.964L61.9622 34.928L59.2982 34.964C58.8182 34.988 58.1702 35 57.3542 35C57.3062 35 57.2822 34.928 57.2822 34.784C57.2822 34.64 57.3062 34.568 57.3542 34.568C58.1222 34.568 58.6862 34.508 59.0462 34.388C59.4062 34.268 59.6462 34.04 59.7662 33.704C59.9102 33.344 59.9822 32.804 59.9822 32.084V15.416C59.9822 14.696 59.9102 14.168 59.7662 13.832C59.6462 13.496 59.4062 13.268 59.0462 13.148C58.6862 13.004 58.1222 12.932 57.3542 12.932C57.3062 12.932 57.2822 12.86 57.2822 12.716C57.2822 12.572 57.3062 12.5 57.3542 12.5L59.2982 12.536C60.4022 12.584 61.2902 12.608 61.9622 12.608C62.7062 12.608 63.6302 12.584 64.7342 12.536L66.5702 12.5C66.6422 12.5 66.6782 12.572 66.6782 12.716C66.6782 12.86 66.6422 12.932 66.5702 12.932C65.8262 12.932 65.2742 13.004 64.9142 13.148C64.5542 13.292 64.3142 13.544 64.1942 13.904C64.0742 14.24 64.0142 14.768 64.0142 15.488V32.084ZM77.6149 31.94C77.6149 32.564 77.6629 33.02 77.7589 33.308C77.8549 33.572 78.0349 33.752 78.2989 33.848C78.5869 33.944 79.0429 33.992 79.6669 33.992H80.8909C82.7629 33.992 84.3829 33.5 85.7509 32.516C87.1189 31.508 88.0309 30.152 88.4869 28.448C88.4869 28.4 88.5349 28.376 88.6309 28.376C88.6789 28.376 88.7269 28.4 88.7749 28.448C88.8469 28.472 88.8829 28.496 88.8829 28.52C88.6669 30.896 88.5589 32.876 88.5589 34.46C88.5589 34.652 88.5109 34.796 88.4149 34.892C88.3429 34.964 88.2109 35 88.0189 35H71.0269C70.9789 35 70.9549 34.928 70.9549 34.784C70.9549 34.64 70.9789 34.568 71.0269 34.568C71.7949 34.568 72.3469 34.508 72.6829 34.388C73.0429 34.268 73.2829 34.04 73.4029 33.704C73.5469 33.344 73.6189 32.804 73.6189 32.084V15.416C73.6189 14.696 73.5469 14.168 73.4029 13.832C73.2829 13.496 73.0429 13.268 72.6829 13.148C72.3229 13.004 71.7709 12.932 71.0269 12.932C70.9789 12.932 70.9549 12.86 70.9549 12.716C70.9549 12.572 70.9789 12.5 71.0269 12.5L72.8629 12.536C73.9669 12.584 74.8789 12.608 75.5989 12.608C76.3189 12.608 77.2309 12.584 78.3349 12.536L80.1709 12.5C80.2429 12.5 80.2789 12.572 80.2789 12.716C80.2789 12.86 80.2429 12.932 80.1709 12.932C79.4269 12.932 78.8749 13.004 78.5149 13.148C78.1549 13.268 77.9149 13.508 77.7949 13.868C77.6749 14.204 77.6149 14.732 77.6149 15.452V31.94Z" fill="#303030"/>
<path d="M103.1 35.144C102.332 35.144 101.42 35.108 100.364 35.036C99.9801 35.012 99.5001 34.988 98.9241 34.964C98.3721 34.94 97.7481 34.928 97.0521 34.928L94.3881 34.964C93.9081 34.988 93.2601 35 92.4441 35C92.3961 35 92.3721 34.928 92.3721 34.784C92.3721 34.64 92.3961 34.568 92.4441 34.568C93.2121 34.568 93.7761 34.508 94.1361 34.388C94.4961 34.268 94.7361 34.04 94.8561 33.704C95.0001 33.344 95.0721 32.804 95.0721 32.084V15.416C95.0721 14.696 95.0001 14.168 94.8561 13.832C94.7361 13.496 94.4961 13.268 94.1361 13.148C93.8001 13.004 93.2601 12.932 92.5161 12.932C92.4441 12.932 92.4081 12.86 92.4081 12.716C92.4081 12.572 92.4441 12.5 92.5161 12.5L94.4241 12.536C95.5281 12.584 96.4041 12.608 97.0521 12.608C98.0361 12.608 99.0441 12.572 100.076 12.5C101.324 12.452 102.164 12.428 102.596 12.428C105.02 12.428 107.168 12.908 109.04 13.868C110.936 14.828 112.4 16.136 113.432 17.792C114.464 19.448 114.98 21.308 114.98 23.372C114.98 25.7 114.44 27.764 113.36 29.564C112.304 31.34 110.864 32.72 109.04 33.704C107.24 34.664 105.26 35.144 103.1 35.144ZM102.74 34.316C104.276 34.316 105.632 33.932 106.808 33.164C107.984 32.372 108.896 31.208 109.544 29.672C110.216 28.136 110.552 26.3 110.552 24.164C110.552 22.124 110.24 20.276 109.616 18.62C108.992 16.94 108.104 15.62 106.952 14.66C105.8 13.7 104.468 13.22 102.956 13.22C101.468 13.22 100.448 13.364 99.8961 13.652C99.3441 13.94 99.0681 14.552 99.0681 15.488V31.688C99.0681 32.648 99.3201 33.332 99.8241 33.74C100.328 34.124 101.3 34.316 102.74 34.316ZM136.403 29.276C136.403 29.228 136.451 29.204 136.547 29.204C136.619 29.204 136.679 29.228 136.727 29.276C136.799 29.3 136.835 29.324 136.835 29.348C136.595 31.22 136.475 32.924 136.475 34.46C136.475 34.652 136.439 34.796 136.367 34.892C136.295 34.964 136.151 35 135.935 35H120.023C119.951 35 119.915 34.928 119.915 34.784C119.915 34.64 119.951 34.568 120.023 34.568C120.791 34.568 121.343 34.508 121.679 34.388C122.039 34.268 122.279 34.04 122.399 33.704C122.519 33.344 122.579 32.804 122.579 32.084V15.416C122.579 14.696 122.519 14.168 122.399 13.832C122.279 13.496 122.039 13.268 121.679 13.148C121.319 13.004 120.767 12.932 120.023 12.932C119.951 12.932 119.915 12.86 119.915 12.716C119.915 12.572 119.951 12.5 120.023 12.5H135.287C135.527 12.5 135.647 12.608 135.647 12.824L135.719 17.612C135.719 17.66 135.647 17.696 135.503 17.72C135.383 17.744 135.311 17.72 135.287 17.648C134.903 16.256 134.255 15.224 133.343 14.552C132.431 13.88 131.231 13.544 129.743 13.544H128.663C127.943 13.544 127.415 13.7 127.079 14.012C126.743 14.324 126.575 14.804 126.575 15.452V22.796H129.563C130.955 22.796 132.023 22.556 132.767 22.076C133.511 21.596 133.883 20.924 133.883 20.06C133.883 19.988 133.943 19.952 134.063 19.952C134.207 19.952 134.279 19.988 134.279 20.06L134.243 23.3L134.279 25.028C134.327 25.844 134.351 26.492 134.351 26.972C134.351 27.02 134.279 27.044 134.135 27.044C133.991 27.044 133.919 27.02 133.919 26.972C133.919 25.988 133.535 25.22 132.767 24.668C132.023 24.092 130.943 23.804 129.527 23.804H126.575V31.94C126.575 32.636 126.707 33.152 126.971 33.488C127.235 33.824 127.655 33.992 128.231 33.992H129.419C131.291 33.992 132.791 33.608 133.919 32.84C135.047 32.072 135.875 30.884 136.403 29.276ZM146.474 16.136C146.474 17 146.69 17.768 147.122 18.44C147.578 19.112 148.13 19.7 148.778 20.204C149.426 20.708 150.302 21.32 151.406 22.04C152.606 22.808 153.566 23.48 154.286 24.056C155.006 24.632 155.618 25.34 156.122 26.18C156.626 26.996 156.878 27.944 156.878 29.024C156.878 30.272 156.542 31.388 155.87 32.372C155.198 33.332 154.262 34.088 153.062 34.64C151.886 35.168 150.566 35.432 149.102 35.432C148.022 35.432 146.894 35.288 145.718 35C144.542 34.688 143.75 34.352 143.342 33.992C143.222 33.896 143.126 33.812 143.054 33.74C143.006 33.644 142.982 33.5 142.982 33.308L142.874 27.584V27.548C142.874 27.452 142.934 27.404 143.054 27.404C143.174 27.38 143.246 27.416 143.27 27.512C143.99 28.976 144.614 30.164 145.142 31.076C145.694 31.988 146.378 32.792 147.194 33.488C148.034 34.184 148.982 34.532 150.038 34.532C150.998 34.532 151.79 34.28 152.414 33.776C153.038 33.248 153.35 32.36 153.35 31.112C153.35 30.056 153.11 29.132 152.63 28.34C152.174 27.548 151.61 26.876 150.938 26.324C150.266 25.772 149.342 25.112 148.166 24.344C147.014 23.6 146.114 22.964 145.466 22.436C144.842 21.908 144.302 21.272 143.846 20.528C143.39 19.784 143.162 18.908 143.162 17.9C143.162 16.628 143.522 15.56 144.242 14.696C144.986 13.808 145.934 13.16 147.086 12.752C148.238 12.32 149.45 12.104 150.722 12.104C151.562 12.104 152.414 12.188 153.278 12.356C154.142 12.5 154.838 12.68 155.366 12.896C155.582 12.992 155.726 13.1 155.798 13.22C155.87 13.316 155.906 13.448 155.906 13.616V18.908C155.906 18.98 155.846 19.04 155.726 19.088C155.606 19.112 155.534 19.088 155.51 19.016L155.222 18.332C154.622 16.82 153.914 15.536 153.098 14.48C152.306 13.424 151.19 12.896 149.75 12.896C148.79 12.896 147.998 13.172 147.374 13.724C146.774 14.276 146.474 15.08 146.474 16.136ZM168.71 32.084C168.71 32.828 168.77 33.368 168.89 33.704C169.01 34.04 169.238 34.268 169.574 34.388C169.934 34.508 170.498 34.568 171.266 34.568C171.338 34.568 171.374 34.64 171.374 34.784C171.374 34.928 171.338 35 171.266 35C170.474 35 169.85 34.988 169.394 34.964L166.658 34.928L163.994 34.964C163.514 34.988 162.866 35 162.05 35C162.002 35 161.978 34.928 161.978 34.784C161.978 34.64 162.002 34.568 162.05 34.568C162.818 34.568 163.382 34.508 163.742 34.388C164.102 34.268 164.342 34.04 164.462 33.704C164.606 33.344 164.678 32.804 164.678 32.084V15.416C164.678 14.696 164.606 14.168 164.462 13.832C164.342 13.496 164.102 13.268 163.742 13.148C163.382 13.004 162.818 12.932 162.05 12.932C162.002 12.932 161.978 12.86 161.978 12.716C161.978 12.572 162.002 12.5 162.05 12.5L163.994 12.536C165.098 12.584 165.986 12.608 166.658 12.608C167.402 12.608 168.326 12.584 169.43 12.536L171.266 12.5C171.338 12.5 171.374 12.572 171.374 12.716C171.374 12.86 171.338 12.932 171.266 12.932C170.522 12.932 169.97 13.004 169.61 13.148C169.25 13.292 169.01 13.544 168.89 13.904C168.77 14.24 168.71 14.768 168.71 15.488V32.084ZM189.366 35.432C186.726 35.432 184.422 34.928 182.454 33.92C180.486 32.912 178.986 31.544 177.954 29.816C176.922 28.064 176.406 26.12 176.406 23.984C176.406 21.68 176.994 19.628 178.17 17.828C179.37 16.004 181.002 14.6 183.066 13.616C185.154 12.608 187.482 12.104 190.05 12.104C191.178 12.104 192.318 12.2 193.47 12.392C194.622 12.56 195.546 12.788 196.242 13.076C196.458 13.148 196.59 13.244 196.638 13.364C196.71 13.46 196.758 13.64 196.782 13.904L197.25 18.908C197.25 18.98 197.19 19.028 197.07 19.052C196.95 19.076 196.866 19.04 196.818 18.944C195.978 17.096 194.814 15.656 193.326 14.624C191.862 13.592 190.182 13.076 188.286 13.076C185.838 13.076 183.966 13.928 182.67 15.632C181.398 17.336 180.762 19.664 180.762 22.616C180.762 24.992 181.17 27.116 181.986 28.988C182.802 30.836 183.93 32.276 185.37 33.308C186.834 34.316 188.466 34.82 190.266 34.82C191.25 34.82 192.006 34.712 192.534 34.496C193.062 34.28 193.446 33.86 193.686 33.236C193.926 32.612 194.046 31.688 194.046 30.464C194.046 29.216 193.974 28.352 193.83 27.872C193.686 27.368 193.374 27.032 192.894 26.864C192.438 26.696 191.634 26.612 190.482 26.612C190.338 26.612 190.266 26.516 190.266 26.324C190.266 26.252 190.278 26.192 190.302 26.144C190.35 26.072 190.398 26.036 190.446 26.036C192.486 26.156 194.13 26.216 195.378 26.216C196.602 26.216 197.874 26.18 199.194 26.108C199.242 26.108 199.278 26.144 199.302 26.216C199.35 26.264 199.374 26.312 199.374 26.36C199.374 26.528 199.314 26.612 199.194 26.612C198.762 26.588 198.462 26.672 198.294 26.864C198.126 27.032 198.018 27.392 197.97 27.944C197.922 28.472 197.898 29.432 197.898 30.824C197.898 31.904 197.934 32.672 198.006 33.128C198.102 33.584 198.15 33.872 198.15 33.992C198.15 34.136 198.114 34.232 198.042 34.28C197.994 34.328 197.886 34.376 197.718 34.424C194.622 35.096 191.838 35.432 189.366 35.432ZM228.345 12.5C228.393 12.5 228.417 12.572 228.417 12.716C228.417 12.86 228.393 12.932 228.345 12.932C227.385 12.932 226.629 13.316 226.077 14.084C225.525 14.828 225.249 15.836 225.249 17.108V35.54C225.249 35.612 225.189 35.66 225.069 35.684C224.973 35.708 224.901 35.696 224.853 35.648L207.969 16.424V30.428C207.969 31.7 208.233 32.708 208.761 33.452C209.289 34.196 210.021 34.568 210.957 34.568C211.005 34.568 211.029 34.64 211.029 34.784C211.029 34.928 211.005 35 210.957 35C210.285 35 209.769 34.988 209.409 34.964L207.465 34.928L205.233 34.964C204.825 34.988 204.237 35 203.469 35C203.397 35 203.361 34.928 203.361 34.784C203.361 34.64 203.397 34.568 203.469 34.568C204.525 34.568 205.353 34.196 205.953 33.452C206.577 32.708 206.889 31.7 206.889 30.428V15.2C206.097 14.336 205.413 13.748 204.837 13.436C204.285 13.1 203.709 12.932 203.109 12.932C203.061 12.932 203.037 12.86 203.037 12.716C203.037 12.572 203.061 12.5 203.109 12.5L204.621 12.536C204.933 12.56 205.389 12.572 205.989 12.572L208.725 12.536C209.061 12.512 209.469 12.5 209.949 12.5C210.141 12.5 210.285 12.548 210.381 12.644C210.477 12.74 210.645 12.944 210.885 13.256C211.293 13.808 211.581 14.18 211.749 14.372L224.205 28.736V17.108C224.205 15.812 223.941 14.792 223.413 14.048C222.885 13.304 222.153 12.932 221.217 12.932C221.169 12.932 221.145 12.86 221.145 12.716C221.145 12.572 221.169 12.5 221.217 12.5L222.765 12.536C223.533 12.584 224.181 12.608 224.709 12.608C225.189 12.608 225.861 12.584 226.725 12.536L228.345 12.5Z" fill="#ECACCA"/>
<path d="M5.688 60.818C6.216 60.818 6.702 60.944 7.146 61.196C7.602 61.448 7.962 61.826 8.226 62.33C8.502 62.834 8.64 63.446 8.64 64.166C8.64 65.03 8.454 65.768 8.082 66.38C7.722 66.992 7.242 67.454 6.642 67.766C6.042 68.078 5.406 68.234 4.734 68.234C3.798 68.234 2.958 67.958 2.214 67.406L0.684 68.108H0.648C0.6 68.108 0.57 68.084 0.558 68.036C0.546 68 0.558 67.97 0.594 67.946C0.918 67.742 1.152 67.508 1.296 67.244C1.452 66.968 1.53 66.602 1.53 66.146V57.344C1.53 56.924 1.488 56.624 1.404 56.444C1.32 56.252 1.176 56.156 0.972 56.156C0.828 56.156 0.594 56.228 0.27 56.372H0.252C0.204 56.372 0.168 56.342 0.144 56.282C0.12 56.222 0.12 56.18 0.144 56.156L2.646 54.968L2.736 54.95C2.784 54.95 2.838 54.974 2.898 55.022C2.958 55.07 2.988 55.112 2.988 55.148V62.15C3.384 61.742 3.798 61.418 4.23 61.178C4.662 60.938 5.148 60.818 5.688 60.818ZM5.202 67.874C5.79 67.874 6.24 67.61 6.552 67.082C6.864 66.554 7.02 65.804 7.02 64.832C7.02 63.776 6.828 62.984 6.444 62.456C6.072 61.916 5.568 61.646 4.932 61.646C4.32 61.646 3.672 61.922 2.988 62.474V65.228C2.988 65.852 3.102 66.362 3.33 66.758C3.57 67.154 3.858 67.442 4.194 67.622C4.542 67.79 4.878 67.874 5.202 67.874ZM18.0301 61.052C18.0541 61.052 18.0661 61.088 18.0661 61.16C18.0661 61.232 18.0541 61.268 18.0301 61.268C17.6701 61.268 17.3581 61.412 17.0941 61.7C16.8421 61.988 16.6081 62.426 16.3921 63.014L14.3221 68.504C13.8901 69.656 13.4761 70.562 13.0801 71.222C12.6841 71.882 12.2821 72.35 11.8741 72.626C11.4661 72.914 11.0161 73.058 10.5241 73.058C10.1881 73.058 9.93009 72.986 9.75009 72.842C9.55809 72.71 9.46209 72.506 9.46209 72.23C9.46209 71.99 9.54009 71.804 9.69609 71.672C9.84009 71.552 10.0201 71.492 10.2361 71.492C10.3801 71.492 10.5001 71.51 10.5961 71.546C10.7041 71.594 10.8121 71.654 10.9201 71.726C11.0401 71.798 11.1421 71.852 11.2261 71.888C11.3221 71.924 11.4361 71.942 11.5681 71.942C11.8441 71.942 12.0961 71.828 12.3241 71.6C12.5641 71.384 12.8101 71.018 13.0621 70.502C13.3261 69.986 13.6381 69.254 13.9981 68.306L11.1541 62.546C10.8901 62.03 10.6801 61.688 10.5241 61.52C10.3801 61.352 10.2001 61.268 9.98409 61.268C9.94809 61.268 9.93009 61.232 9.93009 61.16C9.93009 61.088 9.94809 61.052 9.98409 61.052C10.2961 61.052 10.5361 61.058 10.7041 61.07L11.4061 61.088L12.6301 61.07C12.8101 61.058 13.0561 61.052 13.3681 61.052C13.4041 61.052 13.4221 61.088 13.4221 61.16C13.4221 61.232 13.4041 61.268 13.3681 61.268C13.0441 61.268 12.8041 61.298 12.6481 61.358C12.5041 61.406 12.4321 61.502 12.4321 61.646C12.4321 61.754 12.4621 61.862 12.5221 61.97L14.7181 66.506L15.9241 63.014C16.0321 62.702 16.0861 62.438 16.0861 62.222C16.0861 61.586 15.6841 61.268 14.8801 61.268C14.8561 61.268 14.8441 61.232 14.8441 61.16C14.8441 61.088 14.8561 61.052 14.8801 61.052C15.2041 61.052 15.4501 61.058 15.6181 61.07L16.6981 61.088L17.4001 61.07C17.5321 61.058 17.7421 61.052 18.0301 61.052ZM27.5712 66.47C27.5712 66.794 27.5952 67.028 27.6432 67.172C27.7032 67.316 27.8112 67.412 27.9672 67.46C28.1232 67.508 28.3752 67.532 28.7232 67.532H29.8032C30.6552 67.532 31.3752 67.298 31.9632 66.83C32.5512 66.35 32.9412 65.708 33.1332 64.904C33.1452 64.868 33.1812 64.856 33.2412 64.868C33.3012 64.868 33.3312 64.886 33.3312 64.922C33.2232 66.05 33.1692 66.986 33.1692 67.73C33.1692 67.826 33.1512 67.898 33.1152 67.946C33.0792 67.982 33.0072 68 32.8992 68H24.4752C24.4512 68 24.4392 67.964 24.4392 67.892C24.4392 67.82 24.4512 67.784 24.4752 67.784C24.8832 67.784 25.1772 67.754 25.3572 67.694C25.5492 67.634 25.6752 67.52 25.7352 67.352C25.8072 67.172 25.8432 66.902 25.8432 66.542V58.208C25.8432 57.848 25.8072 57.584 25.7352 57.416C25.6752 57.248 25.5492 57.134 25.3572 57.074C25.1652 57.002 24.8712 56.966 24.4752 56.966C24.4512 56.966 24.4392 56.93 24.4392 56.858C24.4392 56.786 24.4512 56.75 24.4752 56.75L25.3932 56.768C25.9212 56.792 26.3532 56.804 26.6892 56.804C27.0492 56.804 27.4932 56.792 28.0212 56.768L28.9212 56.75C28.9572 56.75 28.9752 56.786 28.9752 56.858C28.9752 56.93 28.9572 56.966 28.9212 56.966C28.5252 56.966 28.2312 57.002 28.0392 57.074C27.8592 57.134 27.7332 57.254 27.6612 57.434C27.6012 57.602 27.5712 57.866 27.5712 58.226V66.47ZM37.7955 61.466C37.7715 61.97 37.7595 62.564 37.7595 63.248V68.864C37.7595 69.68 37.6635 70.346 37.4715 70.862C37.2915 71.39 36.9855 71.828 36.5535 72.176C36.1335 72.524 35.5395 72.824 34.7715 73.076C34.7475 73.088 34.7175 73.058 34.6815 72.986C34.6575 72.926 34.6635 72.89 34.6995 72.878C35.2755 72.626 35.6835 72.224 35.9235 71.672C36.1635 71.12 36.2835 70.322 36.2835 69.278V63.266C36.2835 62.846 36.2415 62.546 36.1575 62.366C36.0855 62.186 35.9535 62.096 35.7615 62.096C35.5695 62.096 35.3295 62.168 35.0415 62.312H35.0235C34.9755 62.312 34.9335 62.282 34.8975 62.222C34.8735 62.162 34.8795 62.12 34.9155 62.096L37.5075 60.89L37.5615 60.872C37.6095 60.872 37.6575 60.902 37.7055 60.962C37.7655 61.01 37.7955 61.052 37.7955 61.088V61.466ZM36.8955 58.982C36.5835 58.982 36.3375 58.898 36.1575 58.73C35.9895 58.562 35.9055 58.322 35.9055 58.01C35.9055 57.71 35.9895 57.482 36.1575 57.326C36.3375 57.158 36.5835 57.074 36.8955 57.074C37.1955 57.074 37.4295 57.158 37.5975 57.326C37.7655 57.482 37.8495 57.71 37.8495 58.01C37.8495 58.322 37.7655 58.562 37.5975 58.73C37.4415 58.898 37.2075 58.982 36.8955 58.982ZM40.9229 68C40.8869 68 40.8689 67.964 40.8689 67.892C40.8689 67.82 40.8869 67.784 40.9229 67.784C41.3309 67.784 41.6009 67.7 41.7329 67.532C41.8649 67.364 41.9309 67.034 41.9309 66.542V63.266C41.9309 62.858 41.8889 62.564 41.8049 62.384C41.7209 62.192 41.5769 62.096 41.3729 62.096C41.1929 62.096 40.9589 62.168 40.6709 62.312H40.6529C40.6049 62.312 40.5689 62.282 40.5449 62.222C40.5209 62.162 40.5269 62.12 40.5629 62.096L43.1549 60.89L43.2089 60.872C43.2569 60.872 43.3049 60.902 43.3529 60.962C43.4129 61.01 43.4429 61.052 43.4429 61.088V61.466C43.4189 61.97 43.4069 62.564 43.4069 63.248V66.542C43.4069 67.034 43.4729 67.364 43.6049 67.532C43.7489 67.7 44.0249 67.784 44.4329 67.784C44.4689 67.784 44.4869 67.82 44.4869 67.892C44.4869 67.964 44.4689 68 44.4329 68C44.1329 68 43.8929 67.994 43.7129 67.982L42.6689 67.964L41.6249 67.982C41.4569 67.994 41.2229 68 40.9229 68ZM42.5789 58.982C42.2669 58.982 42.0209 58.898 41.8409 58.73C41.6729 58.562 41.5889 58.322 41.5889 58.01C41.5889 57.71 41.6729 57.482 41.8409 57.326C42.0209 57.158 42.2669 57.074 42.5789 57.074C42.8789 57.074 43.1129 57.158 43.2809 57.326C43.4489 57.482 43.5329 57.71 43.5329 58.01C43.5329 58.322 43.4489 58.562 43.2809 58.73C43.1249 58.898 42.8909 58.982 42.5789 58.982ZM46.4781 68C46.4421 68 46.4241 67.964 46.4241 67.892C46.4241 67.82 46.4421 67.784 46.4781 67.784C46.8741 67.784 47.1441 67.7 47.2881 67.532C47.4321 67.352 47.5041 67.022 47.5041 66.542V57.344C47.5041 56.924 47.4621 56.624 47.3781 56.444C47.3061 56.252 47.1681 56.156 46.9641 56.156C46.7841 56.156 46.5441 56.228 46.2441 56.372H46.2261C46.1781 56.372 46.1421 56.342 46.1181 56.282C46.0941 56.222 46.0941 56.18 46.1181 56.156L48.6561 54.968L48.7281 54.95C48.7761 54.95 48.8301 54.974 48.8901 55.022C48.9621 55.07 48.9981 55.112 48.9981 55.148V66.542C48.9981 67.034 49.0641 67.364 49.1961 67.532C49.3281 67.7 49.5981 67.784 50.0061 67.784C50.0421 67.784 50.0601 67.82 50.0601 67.892C50.0601 67.964 50.0421 68 50.0061 68C49.7181 68 49.4841 67.994 49.3041 67.982L48.2421 67.964L47.1981 67.982C47.0181 67.994 46.7781 68 46.4781 68ZM54.7338 61.466C54.7098 61.97 54.6978 62.564 54.6978 63.248V68.864C54.6978 69.68 54.6018 70.346 54.4098 70.862C54.2298 71.39 53.9238 71.828 53.4918 72.176C53.0718 72.524 52.4778 72.824 51.7098 73.076C51.6858 73.088 51.6558 73.058 51.6198 72.986C51.5958 72.926 51.6018 72.89 51.6378 72.878C52.2138 72.626 52.6218 72.224 52.8618 71.672C53.1018 71.12 53.2218 70.322 53.2218 69.278V63.266C53.2218 62.846 53.1798 62.546 53.0958 62.366C53.0238 62.186 52.8918 62.096 52.6998 62.096C52.5078 62.096 52.2678 62.168 51.9798 62.312H51.9618C51.9138 62.312 51.8718 62.282 51.8358 62.222C51.8118 62.162 51.8178 62.12 51.8538 62.096L54.4458 60.89L54.4998 60.872C54.5478 60.872 54.5958 60.902 54.6438 60.962C54.7038 61.01 54.7338 61.052 54.7338 61.088V61.466ZM53.8338 58.982C53.5218 58.982 53.2758 58.898 53.0958 58.73C52.9278 58.562 52.8438 58.322 52.8438 58.01C52.8438 57.71 52.9278 57.482 53.0958 57.326C53.2758 57.158 53.5218 57.074 53.8338 57.074C54.1338 57.074 54.3678 57.158 54.5358 57.326C54.7038 57.482 54.7878 57.71 54.7878 58.01C54.7878 58.322 54.7038 58.562 54.5358 58.73C54.3798 58.898 54.1458 58.982 53.8338 58.982ZM64.5931 67.028C64.6411 67.028 64.6711 67.058 64.6831 67.118C64.6951 67.166 64.6771 67.202 64.6291 67.226L62.7751 68.108C62.7271 68.132 62.6731 68.144 62.6131 68.144C62.4451 68.144 62.2831 68.048 62.1271 67.856C61.9711 67.664 61.8631 67.406 61.8031 67.082L60.8671 67.586C60.1711 67.946 59.5771 68.126 59.0851 68.126C58.7011 68.126 58.4011 68.03 58.1851 67.838C57.9811 67.634 57.8791 67.358 57.8791 67.01C57.8791 66.638 58.0111 66.362 58.2751 66.182C58.5391 65.99 59.0431 65.768 59.7871 65.516L61.7491 64.85V63.41C61.7491 62.678 61.6651 62.144 61.4971 61.808C61.3291 61.46 61.0771 61.286 60.7411 61.286C60.0931 61.286 59.7211 61.76 59.6251 62.708C59.5651 63.308 59.2591 63.608 58.7071 63.608C58.1911 63.608 57.9331 63.386 57.9331 62.942C57.9331 62.63 58.1251 62.318 58.5091 62.006C58.9051 61.682 59.3791 61.418 59.9311 61.214C60.4831 60.998 60.9751 60.89 61.4071 60.89C61.9471 60.89 62.3791 61.058 62.7031 61.394C63.0391 61.718 63.2071 62.21 63.2071 62.87V66.056C63.2071 66.428 63.2671 66.71 63.3871 66.902C63.5071 67.094 63.6811 67.19 63.9091 67.19C64.0891 67.19 64.3051 67.136 64.5571 67.028H64.5931ZM61.7671 66.794C61.7551 66.746 61.7491 66.656 61.7491 66.524V65.138L60.4711 65.606C60.1591 65.726 59.9371 65.858 59.8051 66.002C59.6731 66.134 59.6071 66.302 59.6071 66.506C59.6071 66.758 59.6791 66.956 59.8231 67.1C59.9671 67.244 60.1531 67.316 60.3811 67.316C60.6331 67.316 60.9151 67.238 61.2271 67.082L61.7671 66.794ZM74.5997 67.784C74.6357 67.784 74.6537 67.82 74.6537 67.892C74.6537 67.964 74.6357 68 74.5997 68C74.2997 68 74.0657 67.994 73.8977 67.982L72.8537 67.964L71.8277 67.982C71.6477 67.994 71.4077 68 71.1077 68C71.0717 68 71.0537 67.964 71.0537 67.892C71.0537 67.82 71.0717 67.784 71.1077 67.784C71.5157 67.784 71.7857 67.7 71.9177 67.532C72.0497 67.364 72.1157 67.034 72.1157 66.542V63.842C72.1157 63.17 71.9897 62.678 71.7377 62.366C71.4977 62.042 71.1137 61.88 70.5857 61.88C70.2737 61.88 69.9557 61.952 69.6317 62.096C69.3077 62.24 69.0137 62.432 68.7497 62.672V66.542C68.7497 67.034 68.8157 67.364 68.9477 67.532C69.0797 67.7 69.3497 67.784 69.7577 67.784C69.7937 67.784 69.8117 67.82 69.8117 67.892C69.8117 67.964 69.7937 68 69.7577 68C69.4577 68 69.2237 67.994 69.0557 67.982L68.0117 67.964L66.9677 67.982C66.7997 67.994 66.5657 68 66.2657 68C66.2297 68 66.2117 67.964 66.2117 67.892C66.2117 67.82 66.2297 67.784 66.2657 67.784C66.6737 67.784 66.9437 67.7 67.0757 67.532C67.2077 67.364 67.2737 67.034 67.2737 66.542V63.104C67.2737 62.72 67.2257 62.438 67.1297 62.258C67.0457 62.078 66.9017 61.988 66.6977 61.988C66.5177 61.988 66.2177 62.078 65.7977 62.258H65.7797C65.7317 62.258 65.6957 62.228 65.6717 62.168C65.6477 62.108 65.6537 62.072 65.6897 62.06L68.0477 60.908C68.1197 60.884 68.1617 60.872 68.1737 60.872C68.2937 60.872 68.4137 61.01 68.5337 61.286C68.6657 61.55 68.7377 61.898 68.7497 62.33C69.5897 61.334 70.5017 60.836 71.4857 60.836C72.1457 60.836 72.6617 61.04 73.0337 61.448C73.4057 61.844 73.5917 62.384 73.5917 63.068V66.542C73.5917 67.034 73.6577 67.364 73.7897 67.532C73.9217 67.7 74.1917 67.784 74.5997 67.784ZM83.3736 67.028C83.4216 67.028 83.4516 67.058 83.4636 67.118C83.4756 67.166 83.4576 67.202 83.4096 67.226L81.5556 68.108C81.5076 68.132 81.4536 68.144 81.3936 68.144C81.2256 68.144 81.0636 68.048 80.9076 67.856C80.7516 67.664 80.6436 67.406 80.5836 67.082L79.6476 67.586C78.9516 67.946 78.3576 68.126 77.8656 68.126C77.4816 68.126 77.1816 68.03 76.9656 67.838C76.7616 67.634 76.6596 67.358 76.6596 67.01C76.6596 66.638 76.7916 66.362 77.0556 66.182C77.3196 65.99 77.8236 65.768 78.5676 65.516L80.5296 64.85V63.41C80.5296 62.678 80.4456 62.144 80.2776 61.808C80.1096 61.46 79.8576 61.286 79.5216 61.286C78.8736 61.286 78.5016 61.76 78.4056 62.708C78.3456 63.308 78.0396 63.608 77.4876 63.608C76.9716 63.608 76.7136 63.386 76.7136 62.942C76.7136 62.63 76.9056 62.318 77.2896 62.006C77.6856 61.682 78.1596 61.418 78.7116 61.214C79.2636 60.998 79.7556 60.89 80.1876 60.89C80.7276 60.89 81.1596 61.058 81.4836 61.394C81.8196 61.718 81.9876 62.21 81.9876 62.87V66.056C81.9876 66.428 82.0476 66.71 82.1676 66.902C82.2876 67.094 82.4616 67.19 82.6896 67.19C82.8696 67.19 83.0856 67.136 83.3376 67.028H83.3736ZM80.5476 66.794C80.5356 66.746 80.5296 66.656 80.5296 66.524V65.138L79.2516 65.606C78.9396 65.726 78.7176 65.858 78.5856 66.002C78.4536 66.134 78.3876 66.302 78.3876 66.506C78.3876 66.758 78.4596 66.956 78.6036 67.1C78.7476 67.244 78.9336 67.316 79.1616 67.316C79.4136 67.316 79.6956 67.238 80.0076 67.082L80.5476 66.794ZM104.295 67.784C104.319 67.784 104.331 67.82 104.331 67.892C104.331 67.964 104.319 68 104.295 68C103.899 68 103.581 67.994 103.341 67.982L102.045 67.964L100.785 67.982C100.569 67.994 100.263 68 99.867 68C99.843 68 99.831 67.964 99.831 67.892C99.831 67.82 99.843 67.784 99.867 67.784C100.395 67.784 100.749 67.724 100.929 67.604C101.109 67.484 101.199 67.232 101.199 66.848L101.181 66.542L100.821 58.91L96.987 67.874C96.963 67.922 96.915 67.946 96.843 67.946C96.783 67.946 96.729 67.922 96.681 67.874L92.181 58.982L92.019 65.822C92.007 66.458 92.127 66.944 92.379 67.28C92.643 67.616 93.033 67.784 93.549 67.784C93.585 67.784 93.603 67.82 93.603 67.892C93.603 67.964 93.585 68 93.549 68C93.225 68 92.973 67.994 92.793 67.982L91.803 67.964L90.741 67.982C90.561 67.994 90.309 68 89.985 68C89.949 68 89.931 67.964 89.931 67.892C89.931 67.82 89.949 67.784 89.985 67.784C90.477 67.784 90.855 67.616 91.119 67.28C91.395 66.944 91.539 66.458 91.551 65.822L91.713 58.082C91.497 57.698 91.257 57.416 90.993 57.236C90.741 57.056 90.447 56.966 90.111 56.966C90.075 56.966 90.057 56.93 90.057 56.858C90.057 56.786 90.075 56.75 90.111 56.75L90.885 56.768C91.041 56.78 91.245 56.786 91.497 56.786L92.343 56.768C92.439 56.756 92.559 56.75 92.703 56.75C92.859 56.75 92.985 56.81 93.081 56.93C93.177 57.038 93.327 57.29 93.531 57.686L97.491 65.408L101.073 57.2C101.145 57.032 101.223 56.918 101.307 56.858C101.391 56.786 101.493 56.75 101.613 56.75C101.697 56.75 101.805 56.756 101.937 56.768C102.069 56.78 102.231 56.786 102.423 56.786L103.395 56.768C103.551 56.756 103.785 56.75 104.097 56.75C104.121 56.75 104.133 56.786 104.133 56.858C104.133 56.93 104.121 56.966 104.097 56.966C103.521 56.966 103.101 57.074 102.837 57.29C102.585 57.494 102.471 57.836 102.495 58.316L102.909 66.542C102.933 66.914 102.975 67.184 103.035 67.352C103.107 67.52 103.233 67.634 103.413 67.694C103.593 67.754 103.887 67.784 104.295 67.784ZM112.46 66.866C112.484 66.866 112.508 66.89 112.532 66.938C112.568 66.986 112.574 67.022 112.55 67.046C112.118 67.454 111.68 67.754 111.236 67.946C110.792 68.126 110.306 68.216 109.778 68.216C109.034 68.216 108.392 68.06 107.852 67.748C107.324 67.424 106.916 66.998 106.628 66.47C106.352 65.93 106.214 65.354 106.214 64.742C106.214 64.034 106.388 63.386 106.736 62.798C107.096 62.21 107.582 61.748 108.194 61.412C108.818 61.064 109.502 60.89 110.246 60.89C110.954 60.89 111.5 61.052 111.884 61.376C112.268 61.688 112.46 62.12 112.46 62.672C112.46 62.996 112.394 63.158 112.262 63.158H111.272L107.888 63.194C107.852 63.446 107.834 63.716 107.834 64.004C107.834 65.048 108.074 65.882 108.554 66.506C109.046 67.118 109.724 67.424 110.588 67.424C110.9 67.424 111.218 67.382 111.542 67.298C111.866 67.202 112.16 67.064 112.424 66.884L112.46 66.866ZM109.598 61.25C109.202 61.25 108.86 61.394 108.572 61.682C108.284 61.97 108.08 62.366 107.96 62.87L110.768 62.816C110.744 62.324 110.636 61.94 110.444 61.664C110.252 61.388 109.97 61.25 109.598 61.25ZM122.957 66.884C122.993 66.884 123.023 66.914 123.047 66.974C123.083 67.034 123.083 67.07 123.047 67.082L120.743 68.198L120.635 68.216C120.515 68.216 120.401 68.096 120.293 67.856C120.197 67.616 120.143 67.292 120.131 66.884C119.699 67.292 119.255 67.622 118.799 67.874C118.343 68.114 117.845 68.234 117.305 68.234C116.789 68.234 116.315 68.096 115.883 67.82C115.451 67.532 115.109 67.124 114.857 66.596C114.605 66.068 114.479 65.45 114.479 64.742C114.479 63.854 114.689 63.116 115.109 62.528C115.529 61.94 116.057 61.508 116.693 61.232C117.329 60.956 117.965 60.818 118.601 60.818C119.129 60.818 119.633 60.914 120.113 61.106V57.344C120.113 56.924 120.071 56.624 119.987 56.444C119.915 56.252 119.777 56.156 119.573 56.156C119.441 56.156 119.201 56.228 118.853 56.372H118.817C118.769 56.372 118.733 56.342 118.709 56.282C118.685 56.222 118.685 56.186 118.709 56.174L121.247 54.968L121.319 54.95C121.367 54.95 121.421 54.974 121.481 55.022C121.541 55.07 121.571 55.112 121.571 55.148V65.948C121.571 66.368 121.613 66.668 121.697 66.848C121.781 67.016 121.925 67.1 122.129 67.1C122.369 67.1 122.639 67.028 122.939 66.884H122.957ZM118.205 67.442C118.553 67.442 118.877 67.364 119.177 67.208C119.489 67.052 119.801 66.83 120.113 66.542V66.524V62.24C119.873 61.904 119.603 61.658 119.303 61.502C119.015 61.334 118.667 61.25 118.259 61.25C117.575 61.25 117.047 61.49 116.675 61.97C116.303 62.438 116.117 63.176 116.117 64.184C116.117 65.192 116.309 65.99 116.693 66.578C117.089 67.154 117.593 67.442 118.205 67.442ZM128.209 68.234C127.489 68.234 126.853 68.066 126.301 67.73C125.749 67.382 125.323 66.92 125.023 66.344C124.723 65.756 124.573 65.12 124.573 64.436C124.573 63.656 124.765 62.996 125.149 62.456C125.545 61.904 126.043 61.496 126.643 61.232C127.255 60.956 127.879 60.818 128.515 60.818C129.247 60.818 129.883 60.992 130.423 61.34C130.975 61.688 131.395 62.15 131.683 62.726C131.971 63.29 132.115 63.896 132.115 64.544C132.115 65.264 131.935 65.906 131.575 66.47C131.227 67.034 130.753 67.472 130.153 67.784C129.553 68.084 128.905 68.234 128.209 68.234ZM128.749 67.874C129.277 67.874 129.679 67.64 129.955 67.172C130.243 66.704 130.387 66.02 130.387 65.12C130.387 64.316 130.273 63.614 130.045 63.014C129.829 62.414 129.529 61.958 129.145 61.646C128.773 61.334 128.365 61.178 127.921 61.178C127.381 61.178 126.973 61.4 126.697 61.844C126.421 62.288 126.283 62.942 126.283 63.806C126.283 64.586 126.385 65.288 126.589 65.912C126.805 66.524 127.099 67.004 127.471 67.352C127.855 67.7 128.281 67.874 128.749 67.874ZM141.66 61.052C141.684 61.052 141.696 61.088 141.696 61.16C141.696 61.232 141.684 61.268 141.66 61.268C141.324 61.268 141.03 61.388 140.778 61.628C140.538 61.868 140.304 62.252 140.076 62.78L137.844 68C137.82 68.06 137.76 68.09 137.664 68.09C137.556 68.09 137.484 68.06 137.448 68L134.784 62.546C134.532 62.018 134.316 61.676 134.136 61.52C133.956 61.352 133.734 61.268 133.47 61.268C133.434 61.268 133.416 61.232 133.416 61.16C133.416 61.088 133.434 61.052 133.47 61.052C133.686 61.052 133.86 61.058 133.992 61.07L135.036 61.088L136.368 61.07C136.56 61.058 136.824 61.052 137.16 61.052C137.196 61.052 137.214 61.088 137.214 61.16C137.214 61.232 137.196 61.268 137.16 61.268C136.452 61.268 136.098 61.406 136.098 61.682C136.098 61.754 136.128 61.85 136.188 61.97L138.258 66.038L139.626 62.744C139.71 62.54 139.752 62.342 139.752 62.15C139.752 61.862 139.644 61.646 139.428 61.502C139.224 61.346 138.918 61.268 138.51 61.268C138.486 61.268 138.474 61.232 138.474 61.16C138.474 61.088 138.486 61.052 138.51 61.052C138.834 61.052 139.08 61.058 139.248 61.07L140.328 61.088L141.03 61.07C141.162 61.058 141.372 61.052 141.66 61.052ZM143.217 68C143.181 68 143.163 67.964 143.163 67.892C143.163 67.82 143.181 67.784 143.217 67.784C143.625 67.784 143.895 67.7 144.027 67.532C144.159 67.364 144.225 67.034 144.225 66.542V63.266C144.225 62.858 144.183 62.564 144.099 62.384C144.015 62.192 143.871 62.096 143.667 62.096C143.487 62.096 143.253 62.168 142.965 62.312H142.947C142.899 62.312 142.863 62.282 142.839 62.222C142.815 62.162 142.821 62.12 142.857 62.096L145.449 60.89L145.503 60.872C145.551 60.872 145.599 60.902 145.647 60.962C145.707 61.01 145.737 61.052 145.737 61.088V61.466C145.713 61.97 145.701 62.564 145.701 63.248V66.542C145.701 67.034 145.767 67.364 145.899 67.532C146.043 67.7 146.319 67.784 146.727 67.784C146.763 67.784 146.781 67.82 146.781 67.892C146.781 67.964 146.763 68 146.727 68C146.427 68 146.187 67.994 146.007 67.982L144.963 67.964L143.919 67.982C143.751 67.994 143.517 68 143.217 68ZM144.873 58.982C144.561 58.982 144.315 58.898 144.135 58.73C143.967 58.562 143.883 58.322 143.883 58.01C143.883 57.71 143.967 57.482 144.135 57.326C144.315 57.158 144.561 57.074 144.873 57.074C145.173 57.074 145.407 57.158 145.575 57.326C145.743 57.482 145.827 57.71 145.827 58.01C145.827 58.322 145.743 58.562 145.575 58.73C145.419 58.898 145.185 58.982 144.873 58.982ZM152.3 68.216C151.52 68.216 150.854 68.048 150.302 67.712C149.762 67.364 149.36 66.92 149.096 66.38C148.832 65.828 148.7 65.252 148.7 64.652C148.7 63.896 148.904 63.236 149.312 62.672C149.72 62.096 150.242 61.658 150.878 61.358C151.526 61.046 152.18 60.89 152.84 60.89C153.404 60.89 153.914 61.004 154.37 61.232C154.826 61.46 155.054 61.766 155.054 62.15C155.054 62.354 154.976 62.534 154.82 62.69C154.664 62.834 154.448 62.906 154.172 62.906C153.716 62.906 153.386 62.636 153.182 62.096C153.062 61.796 152.936 61.586 152.804 61.466C152.672 61.334 152.462 61.268 152.174 61.268C151.61 61.268 151.16 61.526 150.824 62.042C150.5 62.546 150.338 63.224 150.338 64.076C150.338 65.072 150.566 65.882 151.022 66.506C151.49 67.118 152.216 67.424 153.2 67.424C153.536 67.424 153.836 67.382 154.1 67.298C154.364 67.214 154.652 67.082 154.964 66.902H154.982C155.018 66.902 155.048 66.92 155.072 66.956C155.108 66.992 155.114 67.022 155.09 67.046C154.646 67.442 154.208 67.736 153.776 67.928C153.344 68.12 152.852 68.216 152.3 68.216ZM152.39 59.468C152.39 59.492 152.366 59.504 152.318 59.504C152.282 59.504 152.246 59.498 152.21 59.486C152.186 59.462 152.18 59.444 152.192 59.432L152.894 55.112C152.918 55.064 153.092 55.01 153.416 54.95C153.752 54.878 154.028 54.842 154.244 54.842C154.388 54.842 154.454 54.866 154.442 54.914L152.39 59.468Z" fill="#212121"/>
</svg>
